<svg width="149" height="50" viewBox="0 0 149 50" fill="none" xmlns="http://www.w3.org/2000/svg">
<path d="M50 25C50 38.807 38.807 50 25 50C11.193 50 0 38.807 0 25C0 11.193 11.193 0 25 0C38.807 0 50 11.193 50 25Z" fill="#E73741"/>
<path fill-rule="evenodd" clip-rule="evenodd" d="M119.719 6.34399V29.532C119.719 33.844 122.036 36 126.671 36H127.903C128.284 36 128.592 35.8679 128.827 35.604C129.091 35.34 129.223 35.032 129.223 34.6799C129.223 34.328 129.091 34.0349 128.827 33.7999C128.592 33.536 128.284 33.4039 127.903 33.4039H126.671C125.146 33.4039 124.075 33.125 123.459 32.568C122.872 31.9819 122.579 30.969 122.579 29.532V17.564H128.255C128.392 17.5675 128.528 17.5372 128.651 17.4758C128.774 17.4146 128.88 17.3239 128.959 17.2119C129.164 16.9769 129.267 16.699 129.267 16.376C129.267 16.053 129.164 15.775 128.959 15.5399C128.783 15.3049 128.548 15.188 128.255 15.188H122.579V6.34399C122.579 6.05103 122.432 5.80103 122.139 5.59595C121.846 5.39099 121.508 5.28796 121.127 5.28796C120.78 5.28625 120.441 5.39404 120.159 5.59595C119.866 5.80103 119.719 6.05103 119.719 6.34399ZM12.772 16.2439V34.856C12.772 35.1489 12.904 35.413 13.168 35.6479C13.461 35.8829 13.799 35.9999 14.18 35.9999C14.591 35.9999 14.928 35.8829 15.192 35.6479C15.485 35.413 15.632 35.1489 15.632 34.856V23.9879C15.632 22.0809 16.219 20.5409 17.392 19.3679C18.565 18.1649 19.915 17.564 21.44 17.564H22.98C23.273 17.564 23.537 17.4319 23.772 17.168C24.007 16.9039 24.124 16.5959 24.124 16.2439C24.124 15.892 24.007 15.584 23.772 15.3199C23.537 15.0559 23.273 14.924 22.98 14.924H21.44C20.091 14.924 18.903 15.261 17.876 15.9359C16.849 16.61 16.072 17.4319 15.544 18.3999V16.2439C15.544 15.9509 15.412 15.7009 15.148 15.496C14.884 15.2909 14.561 15.188 14.18 15.188C13.769 15.188 13.432 15.2909 13.168 15.496C12.904 15.7009 12.772 15.9509 12.772 16.2439ZM25.773 23.0199V27.9479C25.773 30.4409 26.653 32.465 28.413 34.0199C30.173 35.5449 32.446 36.308 35.233 36.308C37.111 36.308 38.68 35.985 39.941 35.34C41.203 34.6649 41.833 34.0199 41.833 33.4039C41.833 33.111 41.701 32.8169 41.437 32.5239C41.202 32.2009 40.924 32.0399 40.601 32.0399C40.366 32.0399 40.043 32.1869 39.633 32.48C39.252 32.7729 38.68 33.0669 37.917 33.36C37.184 33.653 36.318 33.7999 35.321 33.7999C33.356 33.7999 31.742 33.287 30.481 32.2599C29.249 31.204 28.633 29.8099 28.633 28.08V26.4519H38.577C39.193 26.4519 39.677 26.423 40.029 26.3639C40.4278 26.2893 40.8134 26.1559 41.173 25.9679C41.613 25.762 41.921 25.4109 42.097 24.912C42.302 24.413 42.405 23.7529 42.405 22.9319C42.405 20.6439 41.584 18.7369 39.941 17.2119C38.327 15.6869 36.407 14.924 34.177 14.924C31.86 14.924 29.88 15.731 28.237 17.3439C26.594 18.928 25.773 20.8199 25.773 23.0199ZM28.633 24.34H37.433C38.313 24.34 38.9 24.252 39.193 24.0759C39.486 23.871 39.633 23.46 39.633 22.8439C39.633 21.377 39.105 20.0869 38.049 18.9719C37.022 17.8569 35.717 17.2999 34.133 17.2999C32.608 17.2999 31.303 17.8279 30.217 18.8839C29.161 19.9399 28.633 21.2009 28.633 22.668V24.34ZM46.541 24.516C46.336 24.75 46.233 25.059 46.233 25.4399C46.233 26.262 46.6 26.672 47.333 26.672H58.773C58.9161 26.6729 59.0575 26.6418 59.1869 26.5809C59.3164 26.5199 59.4305 26.4308 59.521 26.3199C59.756 26.085 59.873 25.792 59.873 25.4399C59.873 25.059 59.756 24.751 59.521 24.516C59.316 24.252 59.067 24.12 58.773 24.12H47.333C47.1789 24.1176 47.0265 24.1523 46.8886 24.2213C46.7508 24.2902 46.6315 24.3912 46.541 24.516ZM64.893 34.856V16.2439C64.893 15.9509 65.025 15.7009 65.289 15.496C65.553 15.2909 65.89 15.188 66.301 15.188C66.682 15.188 67.005 15.2909 67.269 15.496C67.533 15.7009 67.665 15.9509 67.665 16.2439V18.2679C68.193 17.2999 68.955 16.5079 69.953 15.892C70.98 15.2469 72.168 14.924 73.517 14.924C74.925 14.924 76.187 15.334 77.301 16.1559C78.416 16.9479 79.237 18.0039 79.765 19.324C80.498 17.887 81.466 16.8009 82.669 16.0679C83.872 15.3049 85.133 14.924 86.453 14.924C88.448 14.924 90.178 15.6719 91.645 17.168C93.112 18.6639 93.845 20.658 93.845 23.152V34.856C93.845 35.1489 93.698 35.413 93.405 35.6479C93.141 35.8829 92.804 35.9999 92.393 35.9999C92.012 35.9999 91.674 35.8829 91.381 35.6479C91.117 35.413 90.985 35.1489 90.985 34.856V23.152C90.985 21.4219 90.472 20.0569 89.445 19.0599C88.448 18.063 87.289 17.564 85.969 17.564C84.619 17.564 83.417 18.0769 82.361 19.1039C81.334 20.101 80.821 21.392 80.821 22.976V34.8999C80.821 35.6329 80.337 35.9999 79.369 35.9999C78.43 35.9999 77.961 35.6329 77.961 34.8999V23.0199C77.961 21.465 77.462 20.1749 76.465 19.1479C75.497 18.0919 74.324 17.564 72.945 17.564C71.566 17.564 70.349 18.0769 69.293 19.1039C68.266 20.101 67.753 21.4509 67.753 23.152V34.856C67.753 35.1489 67.606 35.413 67.313 35.6479C67.0274 35.8804 66.6692 36.0049 66.301 35.9999C65.92 35.9999 65.582 35.8829 65.289 35.6479C65.025 35.413 64.893 35.1489 64.893 34.856ZM98.389 23.152V27.9479C98.389 30.1479 99.225 32.0989 100.897 33.7999C102.569 35.4719 104.505 36.308 106.705 36.308C108.934 36.308 110.885 35.4719 112.557 33.7999C114.258 32.0979 115.109 30.1479 115.109 27.9479V23.152C115.109 20.8939 114.273 18.9569 112.601 17.3439C110.929 15.731 108.964 14.924 106.705 14.924C104.447 14.924 102.496 15.7449 100.853 17.3879C99.211 19.002 98.389 20.9219 98.389 23.152ZM101.249 27.948C101.249 29.444 101.777 30.778 102.833 31.9519C103.918 33.0959 105.209 33.668 106.705 33.668C108.231 33.668 109.535 33.0959 110.621 31.9519C111.706 30.7789 112.249 29.444 112.249 27.948V23.152C112.249 21.715 111.692 20.424 110.577 19.2799C109.492 18.136 108.201 17.564 106.705 17.564C105.209 17.564 103.918 18.136 102.833 19.2799C101.777 20.424 101.249 21.715 101.249 23.152V27.948ZM131.691 27.9479V23.0199C131.691 20.8199 132.512 18.928 134.155 17.3439C135.798 15.731 137.778 14.924 140.095 14.924C142.324 14.924 144.246 15.6869 145.859 17.2119C147.502 18.7369 148.323 20.6439 148.323 22.9319C148.323 23.7529 148.22 24.413 148.015 24.912C147.839 25.4109 147.531 25.762 147.091 25.9679C146.731 26.1559 146.346 26.2892 145.947 26.3639C145.595 26.423 145.111 26.4519 144.495 26.4519H134.551V28.08C134.551 29.8099 135.167 31.204 136.399 32.2599C137.66 33.287 139.274 33.7999 141.239 33.7999C142.236 33.7999 143.102 33.653 143.835 33.36C144.598 33.0669 145.17 32.7729 145.551 32.48C145.962 32.1869 146.284 32.0399 146.519 32.0399C146.842 32.0399 147.12 32.2009 147.355 32.5239C147.619 32.8169 147.751 33.111 147.751 33.4039C147.751 34.0199 147.12 34.6649 145.859 35.34C144.598 35.985 143.028 36.308 141.151 36.308C138.364 36.308 136.091 35.5449 134.331 34.0199C132.571 32.465 131.691 30.4409 131.691 27.9479ZM143.351 24.34H134.551V22.668C134.551 21.2009 135.079 19.9399 136.135 18.8839C137.22 17.8279 138.526 17.2999 140.051 17.2999C141.635 17.2999 142.94 17.8569 143.967 18.9719C145.023 20.0869 145.551 21.377 145.551 22.8439C145.551 23.46 145.404 23.871 145.111 24.0759C144.818 24.252 144.231 24.34 143.351 24.34Z" fill="#1A1A1A"/>
</svg>
